<?xml version="1.0" encoding="iso-8859-1"?>
<!-- Generator: Adobe Illustrator 21.0.0, SVG Export Plug-In . SVG Version: 6.00 Build 0)  -->
<svg version="1.1" id="Layer_1" xmlns="http://www.w3.org/2000/svg" xmlns:xlink="http://www.w3.org/1999/xlink" x="0px" y="0px"
	 viewBox="0 0 98.624 98.624" style="enable-background:new 0 0 98.624 98.624;" xml:space="preserve">
<path d="M49.312,0C22.078,0,0,22.078,0,49.312s22.078,49.312,49.312,49.312s49.312-22.078,49.312-49.312S76.546,0,49.312,0z
	 M76.688,37.546v1.712c0,17.119-12.839,36.52-36.52,36.52c-7.418,0-13.98-1.997-19.687-5.706c1.141,0.285,1.997,0.285,3.138,0.285
	c5.992,0,11.698-1.997,15.978-5.421c-5.706,0-10.271-3.709-11.983-8.845c0.571,0.285,1.427,0.285,2.283,0.285
	c1.141,0,2.282-0.285,3.424-0.571c-5.992-1.141-10.271-6.277-10.271-12.554v-0.285c1.712,1.141,3.709,1.712,5.706,1.712
	c-3.424-2.283-5.706-5.992-5.706-10.557c0-2.568,0.571-4.565,1.712-6.562c6.562,7.703,15.978,12.839,26.534,13.41
	c-0.285-0.856-0.285-1.712-0.285-2.853c0-7.133,5.706-12.839,12.839-12.839c3.709,0,7.133,1.427,9.415,3.994
	c3.138-0.571,5.706-1.712,8.274-3.138c-1.141,3.138-3.138,5.421-5.706,7.133c2.568-0.285,5.136-0.856,7.418-1.997
	C81.539,33.837,79.541,36.119,76.688,37.546z"/>
</svg>
